<mxfile host="app.diagrams.net" modified="2024-08-06T01:24:59.702Z" agent="Mozilla/5.0 (Windows NT 10.0; Win64; x64) AppleWebKit/537.36 (KHTML, like Gecko) Chrome/127.0.0.0 Safari/537.36" version="24.6.2" etag="qDWT-Y_qAB-jZaKNEFt-" type="github">
  <diagram name="Trang-1" id="quwNWcsOwYU552BxOUCj">
    <mxGraphModel>
      <root>
        <mxCell id="0" />
        <mxCell id="1" parent="0" />
      </root>
    </mxGraphModel>
  </diagram>
</mxfile>
